<mxfile host="app.diagrams.net" modified="2024-06-07T07:55:01.444Z" agent="Mozilla/5.0 (Macintosh; Intel Mac OS X 10_15_7) AppleWebKit/537.36 (KHTML, like Gecko) Chrome/125.0.0.0 Safari/537.36" etag="ZVHOooJ3Vr1FgQXyG_u6" version="24.5.1" type="github">
  <diagram name="페이지-1" id="7YkuUFqi2jJ3yC2kJeny">
    <mxGraphModel dx="1900" dy="1520" grid="0" gridSize="10" guides="1" tooltips="1" connect="1" arrows="1" fold="1" page="1" pageScale="1" pageWidth="1600" pageHeight="900" math="0" shadow="0">
      <root>
        <mxCell id="0" />
        <mxCell id="1" parent="0" />
        <mxCell id="SWmG7YFDHn1etcf9vyW1-20" value="VPC" style="sketch=0;outlineConnect=0;gradientColor=none;html=1;whiteSpace=wrap;fontSize=12;fontStyle=0;shape=mxgraph.aws4.group;grIcon=mxgraph.aws4.group_vpc;strokeColor=#879196;fillColor=none;verticalAlign=top;align=left;spacingLeft=30;fontColor=#879196;dashed=0;" vertex="1" parent="1">
          <mxGeometry x="680" y="130" width="903" height="721" as="geometry" />
        </mxCell>
        <mxCell id="SWmG7YFDHn1etcf9vyW1-18" value="" style="rounded=0;whiteSpace=wrap;html=1;strokeColor=#FF9999;" vertex="1" parent="1">
          <mxGeometry x="208" y="330" width="357" height="337" as="geometry" />
        </mxCell>
        <mxCell id="SWmG7YFDHn1etcf9vyW1-1" value="&lt;span style=&quot;font-size: 30px;&quot;&gt;&lt;b&gt;Ver 1. Docker와 Jenkins 조합으로 CICD 구성&lt;/b&gt;&lt;/span&gt;" style="text;html=1;align=center;verticalAlign=middle;whiteSpace=wrap;rounded=0;" vertex="1" parent="1">
          <mxGeometry x="25" y="37" width="652" height="30" as="geometry" />
        </mxCell>
        <mxCell id="SWmG7YFDHn1etcf9vyW1-13" style="edgeStyle=orthogonalEdgeStyle;rounded=0;orthogonalLoop=1;jettySize=auto;html=1;" edge="1" parent="1" source="SWmG7YFDHn1etcf9vyW1-2" target="SWmG7YFDHn1etcf9vyW1-5">
          <mxGeometry relative="1" as="geometry" />
        </mxCell>
        <mxCell id="SWmG7YFDHn1etcf9vyW1-2" value="" style="sketch=0;pointerEvents=1;shadow=0;dashed=0;html=1;strokeColor=none;fillColor=#505050;labelPosition=center;verticalLabelPosition=bottom;verticalAlign=top;outlineConnect=0;align=center;shape=mxgraph.office.devices.mac_client;" vertex="1" parent="1">
          <mxGeometry x="53" y="395" width="68" height="58" as="geometry" />
        </mxCell>
        <mxCell id="SWmG7YFDHn1etcf9vyW1-5" value="" style="sketch=0;points=[[0,0,0],[0.25,0,0],[0.5,0,0],[0.75,0,0],[1,0,0],[0,1,0],[0.25,1,0],[0.5,1,0],[0.75,1,0],[1,1,0],[0,0.25,0],[0,0.5,0],[0,0.75,0],[1,0.25,0],[1,0.5,0],[1,0.75,0]];outlineConnect=0;fontColor=#232F3E;fillColor=#8C4FFF;strokeColor=#ffffff;dashed=0;verticalLabelPosition=bottom;verticalAlign=top;align=center;html=1;fontSize=12;fontStyle=0;aspect=fixed;shape=mxgraph.aws4.resourceIcon;resIcon=mxgraph.aws4.route_53;" vertex="1" parent="1">
          <mxGeometry x="266" y="384" width="80" height="80" as="geometry" />
        </mxCell>
        <mxCell id="SWmG7YFDHn1etcf9vyW1-14" value="" style="edgeStyle=orthogonalEdgeStyle;rounded=0;orthogonalLoop=1;jettySize=auto;html=1;" edge="1" parent="1" source="SWmG7YFDHn1etcf9vyW1-6" target="SWmG7YFDHn1etcf9vyW1-5">
          <mxGeometry relative="1" as="geometry" />
        </mxCell>
        <mxCell id="SWmG7YFDHn1etcf9vyW1-15" value="" style="rounded=0;orthogonalLoop=1;jettySize=auto;html=1;" edge="1" parent="1" source="SWmG7YFDHn1etcf9vyW1-6" target="SWmG7YFDHn1etcf9vyW1-8">
          <mxGeometry relative="1" as="geometry">
            <mxPoint x="411" y="477" as="targetPoint" />
          </mxGeometry>
        </mxCell>
        <mxCell id="SWmG7YFDHn1etcf9vyW1-6" value="&lt;font style=&quot;font-size: 14px;&quot;&gt;Amazon Cloudfront&lt;/font&gt;" style="sketch=0;outlineConnect=0;fontColor=#232F3E;gradientColor=none;strokeColor=#ffffff;fillColor=#232F3E;dashed=0;verticalLabelPosition=middle;verticalAlign=bottom;align=center;html=1;whiteSpace=wrap;fontSize=10;fontStyle=1;spacing=3;shape=mxgraph.aws4.productIcon;prIcon=mxgraph.aws4.cloudfront;" vertex="1" parent="1">
          <mxGeometry x="254.5" y="508" width="103" height="143" as="geometry" />
        </mxCell>
        <mxCell id="SWmG7YFDHn1etcf9vyW1-17" style="edgeStyle=orthogonalEdgeStyle;rounded=0;orthogonalLoop=1;jettySize=auto;html=1;" edge="1" parent="1" source="SWmG7YFDHn1etcf9vyW1-8" target="SWmG7YFDHn1etcf9vyW1-16">
          <mxGeometry relative="1" as="geometry">
            <Array as="points">
              <mxPoint x="557" y="424" />
              <mxPoint x="557" y="424" />
            </Array>
          </mxGeometry>
        </mxCell>
        <mxCell id="SWmG7YFDHn1etcf9vyW1-8" value="&lt;font style=&quot;font-size: 16px;&quot;&gt;Amazon S3&lt;/font&gt;" style="sketch=0;outlineConnect=0;fontColor=#232F3E;gradientColor=none;strokeColor=#ffffff;fillColor=#232F3E;dashed=0;verticalLabelPosition=middle;verticalAlign=bottom;align=center;html=1;whiteSpace=wrap;fontSize=10;fontStyle=1;spacing=3;shape=mxgraph.aws4.productIcon;prIcon=mxgraph.aws4.s3;" vertex="1" parent="1">
          <mxGeometry x="419" y="374" width="100" height="120" as="geometry" />
        </mxCell>
        <mxCell id="SWmG7YFDHn1etcf9vyW1-35" value="" style="edgeStyle=orthogonalEdgeStyle;rounded=0;orthogonalLoop=1;jettySize=auto;html=1;" edge="1" parent="1" source="SWmG7YFDHn1etcf9vyW1-16" target="SWmG7YFDHn1etcf9vyW1-22">
          <mxGeometry relative="1" as="geometry">
            <Array as="points">
              <mxPoint x="786" y="424" />
              <mxPoint x="786" y="424" />
            </Array>
          </mxGeometry>
        </mxCell>
        <mxCell id="SWmG7YFDHn1etcf9vyW1-16" value="Internet&#xa;gateway" style="sketch=0;outlineConnect=0;fontColor=#232F3E;gradientColor=none;strokeColor=#232F3E;fillColor=#ffffff;dashed=0;verticalLabelPosition=bottom;verticalAlign=top;align=center;html=1;fontSize=12;fontStyle=0;aspect=fixed;shape=mxgraph.aws4.resourceIcon;resIcon=mxgraph.aws4.internet_gateway;" vertex="1" parent="1">
          <mxGeometry x="629" y="370.5" width="107" height="107" as="geometry" />
        </mxCell>
        <mxCell id="SWmG7YFDHn1etcf9vyW1-19" value="&lt;b&gt;Front Side&lt;/b&gt;" style="text;html=1;align=center;verticalAlign=middle;resizable=0;points=[];autosize=1;strokeColor=none;fillColor=none;" vertex="1" parent="1">
          <mxGeometry x="203" y="301" width="77" height="26" as="geometry" />
        </mxCell>
        <mxCell id="SWmG7YFDHn1etcf9vyW1-21" value="Private subnet" style="points=[[0,0],[0.25,0],[0.5,0],[0.75,0],[1,0],[1,0.25],[1,0.5],[1,0.75],[1,1],[0.75,1],[0.5,1],[0.25,1],[0,1],[0,0.75],[0,0.5],[0,0.25]];outlineConnect=0;gradientColor=none;html=1;whiteSpace=wrap;fontSize=12;fontStyle=0;container=1;pointerEvents=0;collapsible=0;recursiveResize=0;shape=mxgraph.aws4.group;grIcon=mxgraph.aws4.group_security_group;grStroke=0;strokeColor=#00A4A6;fillColor=#E6F6F7;verticalAlign=top;align=left;spacingLeft=30;fontColor=#147EBA;dashed=0;" vertex="1" parent="1">
          <mxGeometry x="1190" y="150" width="350" height="300" as="geometry" />
        </mxCell>
        <mxCell id="SWmG7YFDHn1etcf9vyW1-28" value="" style="rounded=0;whiteSpace=wrap;html=1;" vertex="1" parent="SWmG7YFDHn1etcf9vyW1-21">
          <mxGeometry x="86" y="34" width="233" height="110" as="geometry" />
        </mxCell>
        <mxCell id="SWmG7YFDHn1etcf9vyW1-27" value="" style="outlineConnect=0;dashed=0;verticalLabelPosition=bottom;verticalAlign=top;align=center;html=1;shape=mxgraph.aws3.ec2;fillColor=#F58534;gradientColor=none;" vertex="1" parent="SWmG7YFDHn1etcf9vyW1-21">
          <mxGeometry x="17" y="41" width="55" height="70" as="geometry" />
        </mxCell>
        <mxCell id="SWmG7YFDHn1etcf9vyW1-31" value="" style="rounded=0;whiteSpace=wrap;html=1;" vertex="1" parent="SWmG7YFDHn1etcf9vyW1-21">
          <mxGeometry x="86" y="165" width="233" height="110" as="geometry" />
        </mxCell>
        <mxCell id="SWmG7YFDHn1etcf9vyW1-32" value="" style="outlineConnect=0;dashed=0;verticalLabelPosition=bottom;verticalAlign=top;align=center;html=1;shape=mxgraph.aws3.ec2;fillColor=#F58534;gradientColor=none;" vertex="1" parent="SWmG7YFDHn1etcf9vyW1-21">
          <mxGeometry x="17" y="172" width="55" height="70" as="geometry" />
        </mxCell>
        <mxCell id="SWmG7YFDHn1etcf9vyW1-34" value="" style="image;sketch=0;aspect=fixed;html=1;points=[];align=center;fontSize=12;image=img/lib/mscae/Docker.svg;" vertex="1" parent="SWmG7YFDHn1etcf9vyW1-21">
          <mxGeometry x="235" y="64" width="65.85" height="54" as="geometry" />
        </mxCell>
        <mxCell id="SWmG7YFDHn1etcf9vyW1-44" value="" style="shape=image;verticalLabelPosition=bottom;labelBackgroundColor=default;verticalAlign=top;aspect=fixed;imageAspect=0;image=https://get.jenkins.io/art/jenkins-logo/128x128/logo+title.png;" vertex="1" parent="SWmG7YFDHn1etcf9vyW1-21">
          <mxGeometry x="97" y="77.55" width="125.77" height="40.45" as="geometry" />
        </mxCell>
        <mxCell id="SWmG7YFDHn1etcf9vyW1-47" value="" style="shape=image;verticalLabelPosition=bottom;labelBackgroundColor=default;verticalAlign=top;aspect=fixed;imageAspect=0;image=https://get.jenkins.io/art/jenkins-logo/128x128/logo+title.png;" vertex="1" parent="SWmG7YFDHn1etcf9vyW1-21">
          <mxGeometry x="97" y="202.55" width="125.77" height="40.45" as="geometry" />
        </mxCell>
        <mxCell id="SWmG7YFDHn1etcf9vyW1-46" value="" style="image;sketch=0;aspect=fixed;html=1;points=[];align=center;fontSize=12;image=img/lib/mscae/Docker.svg;" vertex="1" parent="SWmG7YFDHn1etcf9vyW1-21">
          <mxGeometry x="233" y="193" width="65.85" height="54" as="geometry" />
        </mxCell>
        <mxCell id="SWmG7YFDHn1etcf9vyW1-22" value="Public subnet" style="points=[[0,0],[0.25,0],[0.5,0],[0.75,0],[1,0],[1,0.25],[1,0.5],[1,0.75],[1,1],[0.75,1],[0.5,1],[0.25,1],[0,1],[0,0.75],[0,0.5],[0,0.25]];outlineConnect=0;gradientColor=none;html=1;whiteSpace=wrap;fontSize=12;fontStyle=0;container=1;pointerEvents=0;collapsible=0;recursiveResize=0;shape=mxgraph.aws4.group;grIcon=mxgraph.aws4.group_security_group;grStroke=0;strokeColor=#7AA116;fillColor=#F2F6E8;verticalAlign=top;align=left;spacingLeft=30;fontColor=#248814;dashed=0;" vertex="1" parent="1">
          <mxGeometry x="796" y="318" width="350" height="300" as="geometry" />
        </mxCell>
        <mxCell id="SWmG7YFDHn1etcf9vyW1-23" value="Application Load Balancer" style="sketch=0;outlineConnect=0;fontColor=#232F3E;gradientColor=none;strokeColor=#ffffff;fillColor=#232F3E;dashed=0;verticalLabelPosition=middle;verticalAlign=bottom;align=center;html=1;whiteSpace=wrap;fontSize=10;fontStyle=1;spacing=3;shape=mxgraph.aws4.productIcon;prIcon=mxgraph.aws4.application_load_balancer;" vertex="1" parent="SWmG7YFDHn1etcf9vyW1-22">
          <mxGeometry x="68" y="36" width="80" height="110" as="geometry" />
        </mxCell>
        <mxCell id="SWmG7YFDHn1etcf9vyW1-24" value="&lt;b&gt;&lt;font style=&quot;font-size: 16px;&quot;&gt;admin side&lt;/font&gt;&lt;/b&gt;" style="text;html=1;align=center;verticalAlign=middle;resizable=0;points=[];autosize=1;strokeColor=none;fillColor=none;" vertex="1" parent="SWmG7YFDHn1etcf9vyW1-22">
          <mxGeometry x="168" y="72" width="102" height="31" as="geometry" />
        </mxCell>
        <mxCell id="SWmG7YFDHn1etcf9vyW1-25" value="Application Load Balancer" style="sketch=0;outlineConnect=0;fontColor=#232F3E;gradientColor=none;strokeColor=#ffffff;fillColor=#232F3E;dashed=0;verticalLabelPosition=middle;verticalAlign=bottom;align=center;html=1;whiteSpace=wrap;fontSize=10;fontStyle=1;spacing=3;shape=mxgraph.aws4.productIcon;prIcon=mxgraph.aws4.application_load_balancer;" vertex="1" parent="SWmG7YFDHn1etcf9vyW1-22">
          <mxGeometry x="68" y="165" width="80" height="110" as="geometry" />
        </mxCell>
        <mxCell id="SWmG7YFDHn1etcf9vyW1-26" value="&lt;b&gt;&lt;font style=&quot;font-size: 16px;&quot;&gt;user side&lt;/font&gt;&lt;/b&gt;" style="text;html=1;align=center;verticalAlign=middle;resizable=0;points=[];autosize=1;strokeColor=none;fillColor=none;" vertex="1" parent="SWmG7YFDHn1etcf9vyW1-22">
          <mxGeometry x="175" y="189" width="88" height="31" as="geometry" />
        </mxCell>
        <mxCell id="SWmG7YFDHn1etcf9vyW1-29" value="" style="rounded=0;whiteSpace=wrap;html=1;" vertex="1" parent="1">
          <mxGeometry x="1188" y="498" width="350" height="300" as="geometry" />
        </mxCell>
        <mxCell id="SWmG7YFDHn1etcf9vyW1-30" style="rounded=0;orthogonalLoop=1;jettySize=auto;html=1;entryX=0;entryY=0.5;entryDx=0;entryDy=0;entryPerimeter=0;" edge="1" parent="1" source="SWmG7YFDHn1etcf9vyW1-23" target="SWmG7YFDHn1etcf9vyW1-27">
          <mxGeometry relative="1" as="geometry" />
        </mxCell>
        <mxCell id="SWmG7YFDHn1etcf9vyW1-33" style="rounded=0;orthogonalLoop=1;jettySize=auto;html=1;entryX=0;entryY=0.5;entryDx=0;entryDy=0;entryPerimeter=0;" edge="1" parent="1" source="SWmG7YFDHn1etcf9vyW1-25" target="SWmG7YFDHn1etcf9vyW1-32">
          <mxGeometry relative="1" as="geometry" />
        </mxCell>
        <mxCell id="SWmG7YFDHn1etcf9vyW1-41" style="edgeStyle=orthogonalEdgeStyle;rounded=0;orthogonalLoop=1;jettySize=auto;html=1;" edge="1" parent="1" source="SWmG7YFDHn1etcf9vyW1-40" target="SWmG7YFDHn1etcf9vyW1-44">
          <mxGeometry relative="1" as="geometry">
            <Array as="points">
              <mxPoint x="1342" y="40" />
            </Array>
          </mxGeometry>
        </mxCell>
        <mxCell id="SWmG7YFDHn1etcf9vyW1-40" value="" style="dashed=0;outlineConnect=0;html=1;align=center;labelPosition=center;verticalLabelPosition=bottom;verticalAlign=top;shape=mxgraph.weblogos.github" vertex="1" parent="1">
          <mxGeometry x="1190" y="14" width="55" height="51.5" as="geometry" />
        </mxCell>
        <mxCell id="SWmG7YFDHn1etcf9vyW1-42" value="&lt;b&gt;Web hook&lt;/b&gt;" style="text;html=1;align=center;verticalAlign=middle;resizable=0;points=[];autosize=1;strokeColor=none;fillColor=none;" vertex="1" parent="1">
          <mxGeometry x="1341" y="102" width="75" height="26" as="geometry" />
        </mxCell>
        <mxCell id="SWmG7YFDHn1etcf9vyW1-49" style="edgeStyle=orthogonalEdgeStyle;rounded=0;orthogonalLoop=1;jettySize=auto;html=1;" edge="1" parent="1" source="SWmG7YFDHn1etcf9vyW1-34" target="SWmG7YFDHn1etcf9vyW1-48">
          <mxGeometry relative="1" as="geometry">
            <Array as="points">
              <mxPoint x="1538" y="241" />
              <mxPoint x="1538" y="449" />
              <mxPoint x="1351" y="449" />
            </Array>
          </mxGeometry>
        </mxCell>
        <mxCell id="SWmG7YFDHn1etcf9vyW1-48" value="" style="shape=image;verticalLabelPosition=bottom;labelBackgroundColor=default;verticalAlign=top;aspect=fixed;imageAspect=0;image=https://miro.medium.com/v2/resize:fit:734/0*sCPc1Ib1zT0Lg1vi.png;" vertex="1" parent="1">
          <mxGeometry x="1252" y="612" width="202.55" height="85" as="geometry" />
        </mxCell>
        <mxCell id="SWmG7YFDHn1etcf9vyW1-50" style="edgeStyle=orthogonalEdgeStyle;rounded=0;orthogonalLoop=1;jettySize=auto;html=1;" edge="1" parent="1" source="SWmG7YFDHn1etcf9vyW1-46" target="SWmG7YFDHn1etcf9vyW1-48">
          <mxGeometry relative="1" as="geometry">
            <Array as="points">
              <mxPoint x="1456" y="465" />
              <mxPoint x="1376" y="465" />
            </Array>
          </mxGeometry>
        </mxCell>
      </root>
    </mxGraphModel>
  </diagram>
</mxfile>
